<svg width="79" height="80" viewBox="0 0 79 80" fill="none" xmlns="http://www.w3.org/2000/svg">
<path d="M51.3848 30.8785L75.9973 25.1285L78.4128 36.9551L53.7737 42.7154L52.7797 42.9478L53.5726 43.5906L73.5971 59.8277L66.3613 69.1786L46.3545 52.9559L45.5396 52.2951V53.3443V79H33.4604V53.3443V52.295L32.6454 52.9559L12.6387 69.181L5.40287 59.8277L25.4275 43.5882L26.2203 42.9452L25.2263 42.713L0.58717 36.9551L3.00267 25.1285L27.6153 30.8785L28.6076 31.1103L28.1837 30.1836L17.3964 6.60026L28.0151 1.18335L38.7838 24.7326L39.228 25.7039L39.6894 24.7407L50.9775 1.17835L61.6043 6.59945L50.8163 30.1836L50.3924 31.1103L51.3848 30.8785Z" stroke="#807E7E"/>
</svg>
