<svg width="362" height="360" viewBox="0 0 362 360" fill="none" xmlns="http://www.w3.org/2000/svg">
<path d="M173.368 112.354L115.186 14.9693L69.7567 43.8683L127.994 141.382L130.579 145.711L125.575 145.1L10.7032 131.082L3.12564 183.265L117.885 197.27L123.03 197.898L119.302 201.498L36.4712 281.501L73.9034 320.256L156.734 240.253L160.462 236.653L160.911 241.816L170.915 357L223.337 351.232L213.323 235.935L212.887 230.912L217.123 233.646L312.549 295.241L343.008 250.843L247.701 189.315L243.472 186.585L248.219 184.911L358.009 146.193L342.484 95.344L232.881 134.009L227.906 135.764L229.744 130.819L270.616 20.9008L220.293 3.60545L177.787 111.989L175.949 116.676L173.368 112.354Z" stroke="url(#paint0_linear_845_3073)" stroke-width="4.9396"/>
<defs>
<linearGradient id="paint0_linear_845_3073" x1="308.956" y1="55.7727" x2="53.4108" y2="302.595" gradientUnits="userSpaceOnUse">
<stop stop-color="#807E7E"/>
<stop offset="1" stop-color="#111111" stop-opacity="0"/>
</linearGradient>
</defs>
</svg>
